HIERARCHY
ROOT Hips
{
	OFFSET	0.00	0.00	0.00
	CHANNELS 6 Xposition Yposition Zposition Zrotation Xrotation Yrotation
	JOINT Spine
	{
		OFFSET	 0.00	0.01	 0.00
		CHANNELS 3 Zrotation Xrotation Yrotation
		JOINT Spine1
		{
			OFFSET	 0.00	 2.45913012437421	 0.00
			CHANNELS 3 Zrotation Xrotation Yrotation
            JOINT Neck
            {
                OFFSET	 0.00	 2.48462964506057	 0.00
                CHANNELS 3 Zrotation Xrotation Yrotation
                JOINT Head
                {
                    OFFSET	 0.00	 0.927524780924562	 0.00
                    CHANNELS 3 Zrotation Xrotation Yrotation
                    End Site 
                    {
                        OFFSET	 0.00	 1.14999962169752	 0.00
                    }
                }
            }
			JOINT LeftShoulder
			{
				OFFSET	 0.00	 2.48462964506057	 0.00
				CHANNELS 3 Zrotation Xrotation Yrotation
				JOINT LeftUpArm
				{
					OFFSET	 0.00	 1.24881979654096	 0.00
					CHANNELS 3 Zrotation Xrotation Yrotation
					JOINT LeftForeArm
					{
						OFFSET	 0.00	2.59758046908119	 0.00
						CHANNELS 3 Zrotation Xrotation Yrotation
						JOINT LeftHand
						{
							OFFSET	 0.00	2.45542024364365	 0.00
							CHANNELS 3 Zrotation Xrotation Yrotation
							JOINT LeftHandThumb 
							{
								OFFSET	 0.00	0.00	 0.00
								CHANNELS 3 Zrotation Xrotation Yrotation
								End Site
								{
									OFFSET	 0.00	0.00	1.00000003353624
								}
							}
							JOINT L_Wrist_End 
							{
								OFFSET	 0.00	0.99999967115358	 0.00
								CHANNELS 3 Zrotation Xrotation Yrotation
								End Site 
								{
									OFFSET	 0.00	 0.00	 0.00
								}
							}
						}
					}
				}
			}
			JOINT RightShoulder
			{
				OFFSET	 0.00	 2.48462964506057	 0.00
				CHANNELS 3 Zrotation Xrotation Yrotation
				JOINT RightUpArm
				{
					OFFSET	 0.00	 1.24881979654096	 0.00
					CHANNELS 3 Zrotation Xrotation Yrotation
					JOINT RightForeArm
					{
						OFFSET	 0.00	2.59758046908119	 0.00
						CHANNELS 3 Zrotation Xrotation Yrotation
						JOINT RightHand
						{
							OFFSET	 0.00	2.45542024364365	 0.00
							CHANNELS 3 Zrotation Xrotation Yrotation
							JOINT RightHandThumb 
							{
								OFFSET	 0.00	0.00	 0.00
								CHANNELS 3 Zrotation Xrotation Yrotation
								End Site
								{
									OFFSET	 0.00	0.00	1.00000003353624
								}
							}
							JOINT R_Wrist_End 
							{
								OFFSET	 0.00	0.99999967115358	 0.00
								CHANNELS 3 Zrotation Xrotation Yrotation
								End Site 
								{
									OFFSET	 0.00	 0.00	 0.00
								}
							}
						}
					}
				}
			}
		}
	}
	JOINT LeftUpLeg
	{
		OFFSET	 1.2719394002717	 0.00	 0.00
		CHANNELS 3 Zrotation Xrotation Yrotation
		JOINT LeftLowLeg
		{
			OFFSET	 0.00	-4.3429100912261	 0.00
			CHANNELS 3 Zrotation Xrotation Yrotation
			JOINT LeftFoot
			{
				OFFSET	 0.00	-4.48767017425826	 0.00
				CHANNELS 3 Zrotation Xrotation Yrotation
				JOINT LeftToeBase
                {
                    OFFSET	 0.00	0.00	 1.51507020887566
                    CHANNELS 3 Zrotation Xrotation Yrotation
                    End Site 
                    {
                        OFFSET	 0.00	0.00	 0.75000010571191
                    }
                }
			}
		}
	}
	JOINT RightUpLeg
	{
		OFFSET	 -1.2719393604653	 0.00	 0.00
		CHANNELS 3 Zrotation Xrotation Yrotation
		JOINT RightLowLeg
		{
			OFFSET	 0.00	-4.3429100912261	 0.00
			CHANNELS 3 Zrotation Xrotation Yrotation
			JOINT RightFoot
			{
				OFFSET	 0.00	-4.48767017425826	 0.00
				CHANNELS 3 Zrotation Xrotation Yrotation
				JOINT RightToeBase
                {
                    OFFSET	 0.00	0.00	 1.51507020887566
                    CHANNELS 3 Zrotation Xrotation Yrotation
                    End Site 
                    {
                        OFFSET	 0.00	0.00	 0.749999965609858
                    }
                }   
			}
		}
	}
}
MOTION 
Frames:	16 
Frame Time: 0.02 
 0.39210201263427735 4.567380065917969 9.31833984375 -166.584 80.8055 523.445 0.928756 -9.24595 -0.659906 4.77522 -12.2539 -0.214695 -13.4769 64.6907 724.819 87.6883 -80.0216 793.283 -114.5612 -9.49871 -10.2061 15.7424 14.7754 -23.2969 0.0 6.80781 0.0 30.9888 -13.4155 32.2564 0.0 0.0 0.0 0.0 0.0 0.0 110.6512 -4.66528 -356.888 -14.6047 3.83784 55.2942 0.0 15.4487 0.0 -28.1737 -17.6669 -54.5957 0.0 0.0 0.0 0.0 0.0 0.0 1.90243 -4.92983 2.99123 0.0 7.70303 0.0 -14.9296 -1.4578991 8.38284 0.0 -27.6599 0.0 8.15992 -4.18773 4.94598 0.0 7.80513 0.0 11.2458 2.7552996 -18.6837 0.0 -36.831 0.0 
  0.3972299957275391 4.569150085449219 9.31864013671875 -166.396 80.8268 523.222 0.952336 -9.21198 -0.637266 4.78626 -12.2361 -0.197966 -13.5409 64.9322 724.865 87.044 -80.0062 792.627 -114.5706 -9.55592 -10.1986 15.7556 14.7948 -23.2064 0.0 6.7586 0.0 31.3258 -13.0211 32.1992 0.0 0.0 0.0 0.0 0.0 0.0 110.6493 -4.74499 -356.877 -14.6242 3.86321 55.543 0.0 15.5258 0.0 -28.3573 -17.5851 -54.5949 0.0 0.0 0.0 0.0 0.0 0.0 1.89253 -4.90963 2.93996 0.0 7.70675 0.0 -14.9019 -1.4813004 8.45549 0.0 -27.642601 0.0 8.152 -4.17814 4.95344 0.0 7.81515 0.0 11.2694 2.771 -18.6597 0.0 -36.8021 0.0 
  0.402218017578125 4.567040100097656 9.318829956054687 -166.385 80.8475 523.032 0.91641 -9.43585 -0.552503 4.90938 -11.8501 -0.124607 -13.6162 65.1228 724.902 86.6707 -80.0204 792.304 -114.6841 -9.52254 -10.3681 15.8012 14.787 -23.0184 0.0 6.8076 0.0 31.7074 -12.988 32.0304 0.0 0.0 0.0 0.0 0.0 0.0 110.6211 -4.74586 -356.727 -14.6733 3.87308 55.5694 0.0 15.533 0.0 -28.4787 -17.421 -54.4049 0.0 0.0 0.0 0.0 0.0 0.0 1.86585 -4.80551 3.07302 0.0 7.62069 0.0 -14.8772 -1.4806004 8.5016 0.0 -27.6607 0.0 8.1255 -4.15111 5.02665 0.0 7.82184 0.0 11.2474 2.8044996 -18.5895 0.0 -36.8461 0.0 
  0.40692298889160156 4.569249877929687 9.319180297851563 -166.134 80.875 522.787 0.956998 -9.36833 -0.538091 4.85645 -11.8733 -0.116969 -13.4714 65.3895 724.751 86.0544 -79.9234 791.736 -114.653 -9.56928 -10.3612 15.8246 14.8224 -23.0609 0.0 6.90485 0.0 31.9159 -13.1282 31.7868 0.0 0.0 0.0 0.0 0.0 0.0 110.64 -4.8423 -356.643 -14.6922 3.87936 55.5416 0.0 15.5468 0.0 -28.558 -17.2384 -54.3527 0.0 0.0 0.0 0.0 0.0 0.0 1.85999 -4.7938 2.95896 0.0 7.64023 0.0 -14.8626 -1.5198002 8.60284 0.0 -27.6157 0.0 8.12896 -4.12037 5.01534 0.0 7.79814 0.0 11.2581 2.8361998 -18.6099 0.0 -36.8574 0.0 
  0.4116429901123047 4.572990112304687 9.319359741210938 -166.09 80.9047 522.751 0.91266 -9.55514 -0.575488 4.89074 -11.3941 -0.173735 -13.5802 65.4569 724.894 86.0417 -79.9028 791.685 -114.726105 -9.59875 -10.5725 15.8631 14.8401 -23.2708 0.0 7.07487 0.0 31.9426 -13.4646 31.2799 0.0 0.0 0.0 0.0 0.0 0.0 110.6859 -4.76624 -356.462 -14.7475 3.87692 55.6707 0.0 15.5531 0.0 -28.5144 -17.0356 -54.0608 0.0 0.0 0.0 0.0 0.0 0.0 1.82948 -4.81375 2.99799 0.0 7.68506 0.0 -14.8248 -1.5065002 8.57652 0.0 -27.6166 0.0 8.11316 -4.13082 5.01618 0.0 7.82677 0.0 11.2158 2.8231 -18.6903 0.0 -36.773598 0.0 
  0.4173509979248047 4.581719970703125 9.319819946289062 -165.819 80.9504 522.633 0.989602 -9.28124 -0.615259 4.72973 -11.6443 -0.217013 -13.5752 65.7385 724.922 85.4497 -79.808 791.004 -114.6139 -9.63286 -10.4578 15.8148 14.8539 -23.8561 0.0 7.27364 0.0 32.0644 -13.6588 30.8257 0.0 0.0 0.0 0.0 0.0 0.0 110.6895 -4.87851 -356.572 -14.7211 3.85886 55.6598 0.0 15.541 0.0 -28.7331 -16.9047 -53.9874 0.0 0.0 0.0 0.0 0.0 0.0 1.81089 -4.92518 2.83966 0.0 7.84756 0.0 -14.7736 -1.5275002 8.60428 0.0 -27.590801 0.0 8.10072 -4.16768 4.83411 0.0 7.88767 0.0 11.2389 2.8133001 -18.671 0.0 -36.757 0.0 
  0.4218600082397461 4.584880065917969 9.319869995117188 -165.734 80.9894 522.462 0.96511 -9.33628 -0.573727 4.76244 -11.4135 -0.180672 -13.3205 65.9128 724.616 85.1109 -79.7501 790.715 -114.6263 -9.67867 -10.4967 15.807 14.9038 -24.5323 0.0 7.53293 0.0 32.0032 -13.7158 30.3723 0.0 0.0 0.0 0.0 0.0 0.0 110.6839 -4.92775 -356.535 -14.7565 3.83415 55.2913 0.0 15.5443 0.0 -28.6149 -17.0111 -53.3035 0.0 0.0 0.0 0.0 0.0 0.0 1.80625 -4.89552 3.14908 0.0 7.85234 0.0 -14.743 -1.4792004 8.3994 0.0 -27.6306 0.0 8.08245 -4.17235 4.80682 0.0 7.92895 0.0 11.2224 2.8268995 -18.607 0.0 -36.7695 0.0 
  0.4265959930419922 4.589169921875 9.319739990234375 -165.663 81.0247 522.341 0.953508 -9.36022 -0.536529 4.76701 -11.2613 -0.14701 -13.2392 66.1552 724.508 84.4468 -79.7033 790.014 -114.616196 -9.68441 -10.5106 15.7973 14.9329 -24.8844 0.0 7.81948 0.0 31.8152 -13.7534 30.0701 0.0 0.0 0.0 0.0 0.0 0.0 110.6582 -4.96611 -356.457 -14.6982 3.84888 55.5693 0.0 15.6326 0.0 -28.487 -16.9765 -53.0798 0.0 0.0 0.0 0.0 0.0 0.0 1.78691 -4.86533 3.24104 0.0 7.82719 0.0 -14.7365 -1.4650993 8.3473 0.0 -27.662899 0.0 8.05509 -4.17516 4.71227 0.0 7.94599 0.0 11.1886 2.8473997 -18.5125 0.0 -36.7586 0.0 
  0.43190799713134764 4.595029907226563 9.31947021484375 -165.706 80.9878 522.33 0.990655 -9.41103 -0.504542 4.7121 -11.1695 -0.126188 -13.2548 66.4123 724.535 83.841 -79.6394 789.344 -114.5978 -9.7057 -10.603 15.802 14.9955 -24.8544 0.0 8.10802 0.0 31.5157 -13.803 29.9089 0.0 0.0 0.0 0.0 0.0 0.0 110.6611 -5.00224 -356.358 -14.6636 3.96454 55.8614 0.0 15.5783 0.0 -28.5691 -16.6796 -52.922 0.0 0.0 0.0 0.0 0.0 0.0 1.76146 -4.89444 3.18183 0.0 7.75653 0.0 -14.7206 -1.471201 8.43252 0.0 -27.6734 0.0 8.0415 -4.19593 5.0398 0.0 7.8498 0.0 11.3005 2.8106003 -18.7193 0.0 -36.8036 0.0 
  0.4360049819946289 4.6031100463867185 9.320009765625 -165.583 81.0164 522.221 0.951871 -9.35511 -0.516309 4.74913 -11.1078 -0.133225 -13.1144 66.7233 724.336 83.3201 -79.5868 788.884 -114.6074 -9.71494 -10.6675 15.7941 15.0493 -24.7906 0.0 8.42849 0.0 31.252 -13.6399 30.2009 0.0 0.0 0.0 0.0 0.0 0.0 110.6798 -5.03303 -356.268 -14.6679 4.02489 55.896 0.0 15.5971 0.0 -28.5067 -16.5259 -52.676 0.0 0.0 0.0 0.0 0.0 0.0 1.75679 -4.92604 3.30942 0.0 7.77249 0.0 -14.6844 -1.4151993 8.31669 0.0 -27.6882 0.0 8.03076 -4.20924 5.01319 0.0 7.83641 0.0 11.2638 2.8481998 -18.7395 0.0 -36.7591 0.0 
  0.44101600646972655 4.610459899902343 9.320189819335937 -165.58 81.0088 522.212 0.939313 -9.33675 -0.509524 4.75739 -11.0324 -0.127315 -13.0775 66.993 724.267 83.0251 -79.5472 788.603 -114.5638 -9.76929 -10.6799 15.7041 15.1264 -24.8742 0.0 8.82267 0.0 31.0951 -13.4472 30.05 0.0 0.0 0.0 0.0 0.0 0.0 110.6935 -5.08253 -356.252 -14.6639 4.06053 56.0393 0.0 15.6414 0.0 -28.3029 -16.3297 -52.2156 0.0 0.0 0.0 0.0 0.0 0.0 1.73105 -4.95688 3.29753 0.0 7.72664 0.0 -14.646 -1.3806992 8.35188 0.0 -27.7321 0.0 8.0056 -4.24207 5.02902 0.0 7.79341 0.0 11.2563 2.8765001 -18.7561 0.0 -36.7737 0.0 
  0.4455149841308594 4.618970031738281 9.320430297851562 -165.619 80.9808 522.22 0.913345 -9.31795 -0.502616 4.79353 -10.9624 -0.118385 -13.1122 67.2183 724.28 82.5133 -79.5311 788.004 -114.531 -9.83076 -10.7288 15.6162 15.2046 -24.9315 0.0 9.25848 0.0 30.8895 -13.3737 29.377 0.0 0.0 0.0 0.0 0.0 0.0 110.6623 -5.10134 -356.281 -14.6362 4.10233 56.0115 0.0 15.6231 0.0 -28.2534 -16.1252 -51.7258 0.0 0.0 0.0 0.0 0.0 0.0 1.71472 -5.01093 3.4227 0.0 7.67817 0.0 -14.6499 -1.3349991 8.28773 0.0 -27.7057 0.0 7.98262 -4.30217 5.04765 0.0 7.74462 0.0 11.1806 2.9269 -18.7609 0.0 -36.555298 0.0 
  0.45012500762939456 4.630660095214844 9.3210498046875 -165.604 80.9289 522.195 0.925583 -9.25576 -0.50902 4.76273 -10.9465 -0.1283 -13.0063 67.4692 724.16 82.0141 -79.4598 787.461 -114.473 -9.8701 -10.703 15.5732 15.261 -24.8335 0.0 9.64917 0.0 30.8187 -13.1578 28.6484 0.0 0.0 0.0 0.0 0.0 0.0 110.6699 -5.08962 -356.289 -14.6174 4.11857 55.8308 0.0 15.5955 0.0 -28.1876 -15.8866 -51.3895 0.0 0.0 0.0 0.0 0.0 0.0 1.72144 -5.10556 3.52529 0.0 7.62495 0.0 -14.6319 -1.2637997 8.21099 0.0 -27.711 0.0 7.97435 -4.44616 5.0208 0.0 7.77864 0.0 11.1921 2.9726 -18.7092 0.0 -36.6487 0.0 
  0.45424598693847656 4.642170104980469 9.321829833984374 -165.636 80.8523 522.159 0.913053 -9.23447 -0.46465 4.7784 -10.8845 -0.0821932 -12.6687 67.7074 723.758 81.3739 -79.3865 786.784 -114.4368 -9.85479 -10.7218 15.5415 15.3724 -24.5595 0.0 9.97812 0.0 30.9394 -12.6819 28.4747 0.0 0.0 0.0 0.0 0.0 0.0 110.6448 -5.09778 -356.212 -14.5536 4.12161 55.7755 0.0 15.6116 0.0 -28.0787 -15.52 -50.8886 0.0 0.0 0.0 0.0 0.0 0.0 1.74268 -5.22044 3.79242 0.0 7.58131 0.0 -14.6664 -1.1863003 8.04664 0.0 -27.73 0.0 7.97098 -4.61502 5.02716 0.0 7.81422 0.0 11.2125 3.0316 -18.6251 0.0 -36.714897 0.0 
  0.45751800537109377 4.657520141601562 9.32281005859375 -165.317 80.8157 521.739 0.948471 -9.06031 -0.41236 4.77112 -10.8764 -0.0361467 -12.4471 67.8603 723.528 80.5299 -79.3039 785.797 -114.4283 -9.81149 -10.8086 15.5707 15.4395 -24.3079 0.0 10.34 0.0 31.1022 -12.0048 28.5373 0.0 0.0 0.0 0.0 0.0 0.0 110.638596 -5.10868 -356.145 -14.4583 4.12612 55.615 0.0 15.6752 0.0 -28.0588 -15.0606 -50.5016 0.0 0.0 0.0 0.0 0.0 0.0 1.82404 -5.26548 4.02087 0.0 7.48556 0.0 -14.7574 -1.1257 7.88202 0.0 -27.6875 0.0 8.00908 -4.80873 4.89873 0.0 7.95225 0.0 11.2194 3.1402998 -18.374 0.0 -36.854797 0.0 
  0.4588520050048828 4.67552001953125 9.323740234375 -165.147 80.7549 521.387 0.911865 -8.85194 -0.345374 4.83241 -10.8488 0.0401197 -12.1821 67.8447 723.286 79.804 -79.2187 784.835 -114.3972 -9.75302 -10.8247 15.6057 15.4049 -24.1284 0.0 10.7888 0.0 31.3211 -11.5417 28.2106 0.0 0.0 0.0 0.0 0.0 0.0 110.5991 -5.10281 -356.107 -14.2858 4.10238 55.54 0.0 15.8029 0.0 -27.9891 -14.7424 -49.6371 0.0 0.0 0.0 0.0 0.0 0.0 1.93418 -5.35949 4.51883 0.0 7.42407 0.0 -14.8827 -1.0014992 7.48684 0.0 -27.778801 0.0 8.05587 -5.09056 4.9097 0.0 8.17493 0.0 11.2542 3.2193003 -18.1405 0.0 -37.0811 0.0 
